{
    "asset" : {
        "generator" : "Khronos glTF Blender I/O v3.2.43",
        "version" : "2.0"
    },
    "scene" : 0,
    "scenes" : [
        {
            "name" : "Scene",
            "nodes" : [
                0,
                1
            ]
        }
    ],
    "nodes" : [
        {
            "mesh" : 0,
            "name" : "Card",
            "rotation" : [
                -0.4999999403953552,
                -0.49999988079071045,
                0.5000001192092896,
                0.5000001192092896
            ]
        },
        {
            "mesh" : 1,
            "name" : "ProfilePicture"
        }
    ],
    "materials" : [
        {
            "doubleSided" : true,
            "name" : "CardFace",
            "pbrMetallicRoughness" : {
                "baseColorTexture" : {
                    "index" : 0
                },
                "metallicFactor" : 0,
                "roughnessFactor" : 0.5
            }
        },
        {
            "doubleSided" : true,
            "name" : "UserPhoto",
            "pbrMetallicRoughness" : {
                "baseColorTexture" : {
                    "index" : 1
                },
                "metallicFactor" : 0
            }
        }
    ],
    "meshes" : [
        {
            "name" : "credit_card",
            "primitives" : [
                {
                    "attributes" : {
                        "POSITION" : 0,
                        "NORMAL" : 1,
                        "TEXCOORD_0" : 2
                    },
                    "indices" : 3,
                    "material" : 0
                }
            ]
        },
        {
            "name" : "credit_card.001",
            "primitives" : [
                {
                    "attributes" : {
                        "POSITION" : 4,
                        "NORMAL" : 5,
                        "TEXCOORD_0" : 6
                    },
                    "indices" : 7,
                    "material" : 1
                }
            ]
        }
    ],
    "textures" : [
        {
            "sampler" : 0,
            "source" : 0
        },
        {
            "sampler" : 0,
            "source" : 1
        }
    ],
    "images" : [
        {
            "bufferView" : 4,
            "mimeType" : "image/png",
            "name" : "card_diffuse"
        },
        {
            "bufferView" : 9,
            "mimeType" : "image/jpeg",
            "name" : "defaultProfile"
        }
    ],
    "accessors" : [
        {
            "bufferView" : 0,
            "componentType" : 5126,
            "count" : 92,
            "max" : [
                4.29782247543335,
                0.05056261271238327,
                2.7809438705444336
            ],
            "min" : [
                -4.29782247543335,
                -0.05056261271238327,
                -2.7809438705444336
            ],
            "type" : "VEC3"
        },
        {
            "bufferView" : 1,
            "componentType" : 5126,
            "count" : 92,
            "type" : "VEC3"
        },
        {
            "bufferView" : 2,
            "componentType" : 5126,
            "count" : 92,
            "type" : "VEC2"
        },
        {
            "bufferView" : 3,
            "componentType" : 5123,
            "count" : 276,
            "type" : "SCALAR"
        },
        {
            "bufferView" : 5,
            "componentType" : 5126,
            "count" : 32,
            "max" : [
                1.1499615907669067,
                2.6458563804626465,
                0.06583596020936966
            ],
            "min" : [
                -1.1499617099761963,
                0.34593331813812256,
                0.06583505123853683
            ],
            "type" : "VEC3"
        },
        {
            "bufferView" : 6,
            "componentType" : 5126,
            "count" : 32,
            "type" : "VEC3"
        },
        {
            "bufferView" : 7,
            "componentType" : 5126,
            "count" : 32,
            "type" : "VEC2"
        },
        {
            "bufferView" : 8,
            "componentType" : 5123,
            "count" : 90,
            "type" : "SCALAR"
        }
    ],
    "bufferViews" : [
        {
            "buffer" : 0,
            "byteLength" : 1104,
            "byteOffset" : 0
        },
        {
            "buffer" : 0,
            "byteLength" : 1104,
            "byteOffset" : 1104
        },
        {
            "buffer" : 0,
            "byteLength" : 736,
            "byteOffset" : 2208
        },
        {
            "buffer" : 0,
            "byteLength" : 552,
            "byteOffset" : 2944
        },
        {
            "buffer" : 0,
            "byteLength" : 628216,
            "byteOffset" : 3496
        },
        {
            "buffer" : 0,
            "byteLength" : 384,
            "byteOffset" : 631712
        },
        {
            "buffer" : 0,
            "byteLength" : 384,
            "byteOffset" : 632096
        },
        {
            "buffer" : 0,
            "byteLength" : 256,
            "byteOffset" : 632480
        },
        {
            "buffer" : 0,
            "byteLength" : 180,
            "byteOffset" : 632736
        },
        {
            "buffer" : 0,
            "byteLength" : 73719,
            "byteOffset" : 632916
        }
    ],
    "samplers" : [
        {
            "magFilter" : 9729,
            "minFilter" : 9987
        }
    ],
    "buffers" : [
        {
            "byteLength" : 706636,
            "uri" : "data:application/octet-stream;base64,"
        }
    ]
}
