{
    "asset" : {
        "generator" : "Khronos glTF Blender I/O v3.2.43",
        "version" : "2.0"
    },
    "scene" : 0,
    "scenes" : [
        {
            "name" : "Scene",
            "nodes" : [
                0,
                1
            ]
        }
    ],
    "nodes" : [
        {
            "mesh" : 0,
            "name" : "Card",
            "rotation" : [
                -0.4999999403953552,
                -0.49999988079071045,
                0.5000001192092896,
                0.5000001192092896
            ]
        },
        {
            "mesh" : 1,
            "name" : "ProfilePicture"
        }
    ],
    "materials" : [
        {
            "doubleSided" : true,
            "name" : "CardFace",
            "pbrMetallicRoughness" : {
                "baseColorTexture" : {
                    "index" : 0
                },
                "metallicFactor" : 0,
                "roughnessFactor" : 0.5
            }
        },
        {
            "doubleSided" : true,
            "emissiveFactor" : [
                1,
                1,
                1
            ],
            "name" : "Glow",
            "pbrMetallicRoughness" : {
                "baseColorFactor" : [
                    0.800000011920929,
                    0.800000011920929,
                    0.800000011920929,
                    1
                ],
                "metallicFactor" : 0,
                "roughnessFactor" : 0.5
            }
        },
        {
            "doubleSided" : true,
            "name" : "UserPhoto",
            "pbrMetallicRoughness" : {
                "metallicFactor" : 0
            }
        }
    ],
    "meshes" : [
        {
            "name" : "credit_card",
            "primitives" : [
                {
                    "attributes" : {
                        "POSITION" : 0,
                        "NORMAL" : 1,
                        "TEXCOORD_0" : 2
                    },
                    "indices" : 3,
                    "material" : 0
                },
                {
                    "attributes" : {
                        "POSITION" : 4,
                        "NORMAL" : 5,
                        "TEXCOORD_0" : 6
                    },
                    "indices" : 7,
                    "material" : 1
                }
            ]
        },
        {
            "name" : "credit_card.001",
            "primitives" : [
                {
                    "attributes" : {
                        "POSITION" : 8,
                        "NORMAL" : 9,
                        "TEXCOORD_0" : 10
                    },
                    "indices" : 11,
                    "material" : 2
                }
            ]
        }
    ],
    "textures" : [
        {
            "sampler" : 0,
            "source" : 0
        }
    ],
    "images" : [
        {
            "bufferView" : 4,
            "mimeType" : "image/png",
            "name" : "card_texture_diffuse"
        }
    ],
    "accessors" : [
        {
            "bufferView" : 0,
            "componentType" : 5126,
            "count" : 48,
            "max" : [
                4.29782247543335,
                0.05056261271238327,
                2.7809438705444336
            ],
            "min" : [
                -4.29782247543335,
                -0.05056261271238327,
                -2.7809438705444336
            ],
            "type" : "VEC3"
        },
        {
            "bufferView" : 1,
            "componentType" : 5126,
            "count" : 48,
            "type" : "VEC3"
        },
        {
            "bufferView" : 2,
            "componentType" : 5126,
            "count" : 48,
            "type" : "VEC2"
        },
        {
            "bufferView" : 3,
            "componentType" : 5123,
            "count" : 156,
            "type" : "SCALAR"
        },
        {
            "bufferView" : 5,
            "componentType" : 5126,
            "count" : 44,
            "max" : [
                4.29782247543335,
                0.05056261271238327,
                2.7809438705444336
            ],
            "min" : [
                -4.29782247543335,
                -0.05056261271238327,
                -2.7809438705444336
            ],
            "type" : "VEC3"
        },
        {
            "bufferView" : 6,
            "componentType" : 5126,
            "count" : 44,
            "type" : "VEC3"
        },
        {
            "bufferView" : 7,
            "componentType" : 5126,
            "count" : 44,
            "type" : "VEC2"
        },
        {
            "bufferView" : 8,
            "componentType" : 5123,
            "count" : 120,
            "type" : "SCALAR"
        },
        {
            "bufferView" : 9,
            "componentType" : 5126,
            "count" : 32,
            "max" : [
                1.1499615907669067,
                2.6458563804626465,
                0.06583596020936966
            ],
            "min" : [
                -1.1499617099761963,
                0.34593331813812256,
                0.06583505123853683
            ],
            "type" : "VEC3"
        },
        {
            "bufferView" : 10,
            "componentType" : 5126,
            "count" : 32,
            "type" : "VEC3"
        },
        {
            "bufferView" : 11,
            "componentType" : 5126,
            "count" : 32,
            "type" : "VEC2"
        },
        {
            "bufferView" : 12,
            "componentType" : 5123,
            "count" : 90,
            "type" : "SCALAR"
        }
    ],
    "bufferViews" : [
        {
            "buffer" : 0,
            "byteLength" : 576,
            "byteOffset" : 0
        },
        {
            "buffer" : 0,
            "byteLength" : 576,
            "byteOffset" : 576
        },
        {
            "buffer" : 0,
            "byteLength" : 384,
            "byteOffset" : 1152
        },
        {
            "buffer" : 0,
            "byteLength" : 312,
            "byteOffset" : 1536
        },
        {
            "buffer" : 0,
            "byteLength" : 437777,
            "byteOffset" : 1848
        },
        {
            "buffer" : 0,
            "byteLength" : 528,
            "byteOffset" : 439628
        },
        {
            "buffer" : 0,
            "byteLength" : 528,
            "byteOffset" : 440156
        },
        {
            "buffer" : 0,
            "byteLength" : 352,
            "byteOffset" : 440684
        },
        {
            "buffer" : 0,
            "byteLength" : 240,
            "byteOffset" : 441036
        },
        {
            "buffer" : 0,
            "byteLength" : 384,
            "byteOffset" : 441276
        },
        {
            "buffer" : 0,
            "byteLength" : 384,
            "byteOffset" : 441660
        },
        {
            "buffer" : 0,
            "byteLength" : 256,
            "byteOffset" : 442044
        },
        {
            "buffer" : 0,
            "byteLength" : 180,
            "byteOffset" : 442300
        }
    ],
    "samplers" : [
        {
            "magFilter" : 9729,
            "minFilter" : 9987
        }
    ],
    "buffers" : [
        {
            "byteLength" : 442480,
            "uri" : "data:application/octet-stream;base64,"
        }
    ]
}
